<svg width="27" height="21" viewBox="0 0 27 21" fill="none" xmlns="http://www.w3.org/2000/svg">
<path d="M23.9167 1H3.08335C1.93433 1 1 1.93433 1 3.08335V17.6667C1 18.8157 1.93433 19.75 3.08335 19.75H23.9167C25.0657 19.75 26 18.8157 26 17.6667V3.08335C26 1.93433 25.0657 1 23.9167 1ZM3.08335 2.04165H23.9167C23.9935 2.04165 24.0611 2.06963 24.1331 2.08545C22.3294 3.73618 16.3488 9.20747 14.2559 11.0932C14.0921 11.2407 13.8281 11.4167 13.5 11.4167C13.172 11.4167 12.908 11.2407 12.7437 11.0927C10.651 9.20728 4.66997 3.73569 2.8666 2.08555C2.93877 2.06973 3.00654 2.04165 3.08335 2.04165ZM2.04165 17.6667V3.08335C2.04165 2.9813 2.07241 2.88872 2.09995 2.79546C3.48042 4.05894 7.65347 7.87651 10.3593 10.3371C7.66226 12.6539 3.48813 16.6113 2.09668 17.9381C2.07212 17.8496 2.04165 17.7629 2.04165 17.6667ZM23.9167 18.7083H3.08335C3.00015 18.7083 2.92617 18.6793 2.84849 18.6608C4.28633 17.2901 8.48701 13.3099 11.1367 11.0432C11.4821 11.3565 11.7976 11.6422 12.0463 11.8663C12.4756 12.2539 12.9781 12.4583 13.5 12.4583C14.0219 12.4583 14.5244 12.2539 14.9531 11.8668C15.202 11.6426 15.5177 11.3566 15.8633 11.0432C18.5131 13.3097 22.7132 17.2896 24.1515 18.6608C24.0738 18.6793 24 18.7083 23.9167 18.7083ZM24.9583 17.6667C24.9583 17.7629 24.9279 17.8496 24.9034 17.9381C23.5114 16.6106 19.3377 12.6536 16.6407 10.3372C19.3467 7.87656 23.5191 4.05933 24.9 2.79536C24.9276 2.88862 24.9583 2.98125 24.9583 3.0833V17.6667Z" fill="#0071E3" stroke="#0071E3"/>
</svg>
