<svg width="28" height="28" viewBox="0 0 28 28" fill="none" xmlns="http://www.w3.org/2000/svg">
<path d="M8.03562 24.1945C9.92568 25.3433 12.136 26 14.5029 26C21.3963 26 27 20.3928 27 13.5C27 6.60723 21.3963 1 14.5029 1H14.4971C7.60378 1 2 6.60571 2 13.5C2 16.0463 2.76497 18.4215 4.08136 20.399L2.80805 24.1946L2.18016 26.0663L4.06062 25.4652L8.03562 24.1945Z" fill="#FDFDFD" stroke="#0071E3" stroke-width="2"/>
<path d="M22.714 18.9894C22.3881 19.9162 21.0945 20.6849 20.0626 20.9094C19.3567 21.0607 18.4347 21.1815 15.3307 19.8856C11.3604 18.2292 8.80361 14.1664 8.60433 13.9028C8.4135 13.6392 7 11.7515 7 9.79919C7 7.84688 7.98455 6.89623 8.38141 6.48808C8.70735 6.15306 9.24607 6 9.76283 6C9.93002 6 10.0803 6.0085 10.2154 6.01531C10.6123 6.03231 10.8116 6.05612 11.0733 6.68705C11.3992 7.47784 12.193 9.43016 12.2875 9.63083C12.3838 9.8315 12.4801 10.1036 12.345 10.3672C12.2183 10.6393 12.1068 10.76 11.9076 10.9913C11.7083 11.2226 11.5192 11.3995 11.3199 11.6478C11.1375 11.8637 10.9315 12.095 11.1611 12.4947C11.3908 12.8858 12.1845 14.1902 13.3532 15.2378C14.8612 16.5898 16.0839 17.0217 16.5213 17.2054C16.8472 17.3414 17.2356 17.3091 17.4738 17.054C17.776 16.7258 18.1493 16.1816 18.5292 15.6459C18.7994 15.2616 19.1406 15.214 19.4986 15.35C19.8634 15.4776 21.7936 16.4384 22.1905 16.6374C22.5874 16.8381 22.8491 16.9333 22.9454 17.1017C23.0399 17.27 23.0399 18.0608 22.714 18.9894Z" fill="#0071E3"/>
</svg>
